<?xml version="1.0" encoding="utf-8"?>
<!-- Generator: Adobe Illustrator 16.0.0, SVG Export Plug-In . SVG Version: 6.00 Build 0)  -->
<!DOCTYPE svg PUBLIC "-//W3C//DTD SVG 1.1//EN" "http://www.w3.org/Graphics/SVG/1.1/DTD/svg11.dtd">
<svg version="1.1" xmlns="http://www.w3.org/2000/svg" xmlns:xlink="http://www.w3.org/1999/xlink" x="0px" y="0px" width="100px"
	 height="100px" viewBox="0 0 100 100" enable-background="new 0 0 100 100" xml:space="preserve">
<g id="THAI">
	<g id="Layer_1">
		<rect fill="#79BC79" width="100" height="100"/>
	</g>
	<rect opacity="0.1" width="100" height="100"/>
	<g id="spine">
		<g>
			<defs>
				<rect id="SVGID_1_" x="34.292" y="7.84" width="31.416" height="59.659"/>
			</defs>
			<clipPath id="SVGID_2_">
				<use xlink:href="#SVGID_1_"  overflow="visible"/>
			</clipPath>
			<path clip-path="url(#SVGID_2_)" fill="#FFFFFF" d="M62.941,12.92h-2.16V9.875c0-0.712-0.301-1.361-0.803-1.733
				c-0.496-0.369-1.128-0.402-1.648-0.085c-1.615,0.983-4.885,1.618-8.332,1.618s-6.717-0.634-8.333-1.618
				c-0.52-0.316-1.151-0.284-1.647,0.084c-0.503,0.374-0.804,1.022-0.804,1.735v3.045h-2.159c-1.524,0-2.763,1.493-2.763,3.33v2.315
				c0,1.835,1.239,3.329,2.763,3.329h2.159v1.52c0,1.206,0.584,2.317,1.49,2.831c3.053,1.732,8.278,1.82,9.294,1.82
				c2.936,0,6.917-0.478,9.291-1.819c0.906-0.512,1.493-1.625,1.493-2.833v-1.519h2.159c1.523,0,2.763-1.494,2.763-3.329V16.25
				C65.704,14.414,64.465,12.92,62.941,12.92L62.941,12.92z M63.063,18.565c0,0.081-0.054,0.148-0.122,0.148h-3.479
				c-0.729,0-1.321,0.711-1.321,1.591v3.076c-1.988,1.108-5.624,1.503-8.143,1.503c-2.524,0-6.164-0.394-8.144-1.502v-3.076
				c0-0.879-0.591-1.591-1.32-1.591h-3.479c-0.068,0-0.123-0.067-0.123-0.148V16.25c0-0.083,0.055-0.148,0.123-0.148h3.479
				c0.729,0,1.32-0.712,1.32-1.591v-2.942c2.069,0.817,4.982,1.287,8.144,1.287c3.16,0,6.074-0.47,8.143-1.287v2.942
				c0,0.879,0.592,1.591,1.321,1.591h3.479c0.068,0,0.122,0.066,0.122,0.148V18.565z M63.063,18.565"/>
		</g>
		<path fill="#FFFFFF" d="M62.606,32.564h-1.824v-3.045c0-0.702-0.309-1.367-0.804-1.733c-0.495-0.37-1.127-0.402-1.648-0.085
			c-1.614,0.983-4.885,1.618-8.332,1.618s-6.717-0.635-8.332-1.618c-0.522-0.317-1.153-0.285-1.647,0.083
			c-0.497,0.368-0.805,1.033-0.805,1.736v3.045H37.39c-1.708,0-3.098,1.675-3.098,3.733v1.507c0,2.06,1.39,3.734,3.098,3.734h1.824
			v1.52c0,1.207,0.585,2.317,1.49,2.83c3.053,1.733,8.278,1.82,9.294,1.82c2.936,0,6.917-0.477,9.291-1.818
			c0.906-0.513,1.492-1.625,1.492-2.833v-1.519h1.825c1.708,0,3.098-1.674,3.098-3.734v-1.507
			C65.704,34.239,64.314,32.564,62.606,32.564L62.606,32.564z M63.063,37.804c0,0.305-0.205,0.552-0.457,0.552h-3.145
			c-0.729,0-1.321,0.713-1.321,1.591v3.076c-1.987,1.11-5.624,1.504-8.143,1.504c-2.524,0-6.164-0.394-8.144-1.503v-3.077
			c0-0.878-0.591-1.591-1.32-1.591H37.39c-0.253,0-0.458-0.248-0.458-0.552v-1.506c0-0.304,0.205-0.552,0.458-0.552h3.144
			c0.729,0,1.32-0.711,1.32-1.59v-2.942c2.07,0.817,4.983,1.287,8.145,1.287c3.16,0,6.074-0.47,8.143-1.287v2.942
			c0,0.879,0.592,1.59,1.321,1.59h3.144c0.252,0,0.458,0.248,0.458,0.552V37.804z M63.063,37.804"/>
		<path fill="#FFFFFF" d="M44.386,13.562c-0.729,0-1.32,0.711-1.32,1.591v6.116c0,0.878,0.591,1.591,1.32,1.591
			c0.729,0,1.32-0.713,1.32-1.591v-6.116C45.707,14.273,45.116,13.562,44.386,13.562L44.386,13.562z M44.386,13.562"/>
		<path fill="#FFFFFF" d="M44.386,33.357c-0.729,0-1.32,0.712-1.32,1.59v5.904c0,0.88,0.591,1.591,1.32,1.591
			c0.729,0,1.32-0.711,1.32-1.591v-5.904C45.707,34.069,45.116,33.357,44.386,33.357L44.386,33.357z M44.386,33.357"/>
		<path fill="#FFFFFF" d="M62.606,52.283h-1.824v-3.044c0-0.702-0.309-1.367-0.804-1.735c-0.497-0.367-1.128-0.401-1.648-0.084
			c-1.614,0.983-4.885,1.618-8.332,1.618s-6.717-0.635-8.332-1.619c-0.522-0.317-1.153-0.285-1.647,0.084
			c-0.497,0.367-0.805,1.032-0.805,1.735v3.044H37.39c-1.708,0-3.098,1.675-3.098,3.734v1.507c0,2.059,1.39,3.734,3.098,3.734h1.824
			v1.52c0,1.205,0.585,2.315,1.49,2.83c3.055,1.733,8.278,1.82,9.294,1.82c2.936,0,6.917-0.478,9.291-1.819
			c0.906-0.512,1.492-1.624,1.492-2.832v-1.519h1.825c1.708,0,3.098-1.675,3.098-3.734v-1.507
			C65.704,53.958,64.314,52.283,62.606,52.283L62.606,52.283z M63.063,57.524c0,0.304-0.205,0.551-0.457,0.551h-3.145
			c-0.729,0-1.321,0.714-1.321,1.592v3.076c-1.988,1.109-5.624,1.503-8.143,1.503c-2.524,0-6.164-0.393-8.144-1.502v-3.077
			c0-0.878-0.591-1.592-1.32-1.592H37.39c-0.253,0-0.458-0.247-0.458-0.551v-1.507c0-0.304,0.205-0.552,0.458-0.552h3.144
			c0.729,0,1.32-0.713,1.32-1.592v-2.942c2.07,0.817,4.983,1.287,8.145,1.287c3.16,0,6.074-0.47,8.143-1.287v2.942
			c0,0.879,0.592,1.592,1.321,1.592h3.144c0.252,0,0.458,0.248,0.458,0.552V57.524z M63.063,57.524"/>
		<path fill="#FFFFFF" d="M44.386,53.076c-0.729,0-1.32,0.713-1.32,1.591v5.903c0,0.88,0.591,1.592,1.32,1.592
			c0.729,0,1.32-0.712,1.32-1.592v-5.903C45.707,53.789,45.116,53.076,44.386,53.076L44.386,53.076z M44.386,53.076"/>
	</g>
	<text transform="matrix(1 0 0 1 22 88.25)" fill="#FFFFFF" font-family="'GenJyuuGothicL-Monospace-Medium'" font-size="14">泰式按摩</text>
</g>
<g id="cn" display="none">
	<rect display="inline" fill="#9187C7" width="100" height="100"/>
	<g id="baack" display="inline">
		<g>
			<defs>
				<rect id="SVGID_3_" x="26" y="11.215" width="48" height="51.646"/>
			</defs>
			<clipPath id="SVGID_4_">
				<use xlink:href="#SVGID_3_"  overflow="visible"/>
			</clipPath>
			<path clip-path="url(#SVGID_4_)" fill="#FFFFFF" d="M67.155,21.235l-6.606-1.258c-1.669-0.318-2.881-1.782-2.881-3.481v-2.731
				c0-1.405-1.145-2.55-2.55-2.55H44.736c-1.405,0-2.55,1.145-2.55,2.55v2.731c0,1.698-1.211,3.163-2.88,3.481L32.7,21.235
				c-4.125,0.786-6.995,4.536-6.676,8.722l2.312,30.388c0.101,1.322,1.218,2.356,2.543,2.356h38.097
				c1.325,0,2.442-1.034,2.543-2.356l2.312-30.388C74.149,25.771,71.278,22.021,67.155,21.235L67.155,21.235z M71.287,29.764
				l-2.312,30.387h-5.573l-1.231-5.894l4.298-18.799c0.156-0.686-0.271-1.37-0.959-1.527c-0.687-0.158-1.37,0.272-1.527,0.959
				l-4.359,19.072c-0.041,0.178-0.042,0.364-0.006,0.545l1.181,5.644H39.057l1.179-5.644c0.037-0.181,0.036-0.367-0.005-0.545
				l-4.36-19.072c-0.157-0.687-0.84-1.116-1.527-0.959c-0.687,0.157-1.116,0.841-0.959,1.527l4.297,18.799l-1.232,5.894h-5.572
				l-2.311-30.387c-0.22-2.891,1.761-5.481,4.61-6.023l6.606-1.258c2.87-0.547,4.953-3.065,4.953-5.987l-0.001-2.73l10.382-0.001
				v2.731c0,2.921,2.083,5.439,4.953,5.987l6.605,1.258C69.524,24.283,71.507,26.873,71.287,29.764L71.287,29.764z M71.287,29.764"
				/>
		</g>
		<path fill="#FFFFFF" d="M49.927,26.427c-0.563,0-1.021,0.457-1.021,1.02v22.094c0,0.564,0.457,1.021,1.021,1.021
			c0.563,0,1.02-0.456,1.02-1.021V27.447C50.947,26.883,50.49,26.427,49.927,26.427L49.927,26.427z M49.927,26.427"/>
	</g>
	
		<text transform="matrix(1 0 0 1 22 88.25)" display="inline" fill="#FFFFFF" font-family="'GenJyuuGothicL-Monospace-Medium'" font-size="14">中式按摩</text>
</g>
<g id="oil_1_" display="none">
	<rect display="inline" fill="#FA928C" width="100" height="100"/>
	<g id="oil" display="inline">
		<path fill="#FFFFFF" d="M47.667,64.236L47.667,64.236c0.632,0.05,1.27,0.074,1.901,0.074c8.839,0,16.229-4.708,17.193-10.95
			c0.66-4.285-0.953-8.354-2.515-12.289c-2.791-7.029-5.425-13.67,2.666-22.679c1.28-1.427,0.926-3.287-0.845-4.42
			c-0.896-0.574-2.056-0.89-3.262-0.89c-1.093,0-2.165,0.266-3.021,0.746c-9.896,5.561-17.379,12.531-22.24,20.715
			c-4.925,8.29-5.241,14.616-5.221,16.358C32.408,58.059,38.716,63.542,47.667,64.236L47.667,64.236z M61.857,17.3
			c-8.396,9.969-5.285,17.811-2.531,24.754c1.498,3.766,2.908,7.326,2.355,10.913c-0.679,4.399-6.221,6.752-12.449,6.752
			c-0.446,0,0,0-0.899-0.053c-7.353-0.431-10.852-4.493-10.901-8.795C37.354,44.172,42.393,28.695,61.857,17.3L61.857,17.3z
			 M61.857,17.3"/>
		<path fill="#FFFFFF" d="M44.993,52.136c0.016-0.005,0.032-0.009,0.046-0.012c1.167-0.299,1.848-1.171,1.555-2.024
			c-0.944-2.76-0.152-6.136,0.38-7.513c0.362-0.937-0.411-1.906-1.731-2.166c-1.321-0.261-2.691,0.289-3.058,1.228
			c-0.101,0.257-1.889,4.959-0.417,9.274C42.11,51.928,43.623,52.489,44.993,52.136L44.993,52.136z M44.993,52.136"/>
		<path fill="#FFFFFF" d="M49.095,55.513c0,0.974-1.111,1.762-2.484,1.762c-1.372,0-2.484-0.788-2.484-1.762
			c0-0.973,1.112-1.763,2.484-1.763C47.983,53.75,49.095,54.54,49.095,55.513L49.095,55.513z M49.095,55.513"/>
	</g>
	
		<text transform="matrix(1 0 0 1 36 88.25)" display="inline" fill="#FFFFFF" font-family="'GenJyuuGothicL-Monospace-Medium'" font-size="14">推油</text>
</g>
<g id="foot_1_" display="none">
	<rect display="inline" fill="#86CEF2" width="100" height="100"/>
	
		<text transform="matrix(1 0 0 1 24 88.25)" display="inline" fill="#FFFFFF" font-family="'GenJyuuGothicL-Monospace-Medium'" font-size="13">腳底按摩</text>
	<g id="foot" display="inline">
		<path fill="#FFFFFF" d="M63.621,20.064c-0.072-0.067-0.074-0.168-0.005-0.239c1.132-1.176,1.755-2.668,1.755-4.204
			c0-3.612-3.376-6.551-7.528-6.551c-2.979,0-5.577,1.501-6.793,3.723c-0.541-0.147-1.105-0.224-1.679-0.224
			c-2.735,0-5.048,1.718-5.766,4.06c-0.069-0.002-0.138-0.003-0.207-0.003c-2.409,0-4.458,1.536-5.265,3.801
			c-2.202,0.407-3.86,2.126-3.86,4.18c0,1.438,0.04,9.035,0.833,17.395c1.116,11.769,3.189,19.405,6.162,22.692
			c2.707,2.993,6.019,4.575,9.575,4.575c3.652,0,7.106-1.545,9.241-4.135c2.136-2.588,2.722-5.941,1.566-8.969l-1.18-3.092
			c-2.585-6.78-1.996-14.034,1.661-20.425l2.774-4.848c1.455-2.542,0.942-5.644-1.271-7.724
			C63.63,20.072,63.625,20.068,63.621,20.064L63.621,20.064z M61.679,26.42l-2.817,4.846c-4.142,7.129-4.812,15.219-1.881,22.781
			l1.198,3.092c0.811,2.089,0.399,4.403-1.098,6.19c-1.496,1.787-3.918,2.854-6.478,2.854c-3.129,0-5.486-1.852-6.913-3.403
			c-5.008-5.455-6.332-27.355-6.332-38.174c0-0.653,0.605-1.185,1.351-1.185c0.047,0,0.111,0.004,0.192,0.015
			c0.481,0.06,0.968-0.051,1.352-0.306c0.384-0.255,0.631-0.633,0.686-1.049c0.174-1.329,1.098-2.371,2.101-2.371
			c0.271,0,0.542,0.077,0.806,0.229c0.58,0.335,1.332,0.35,1.928,0.039c0.595-0.31,0.93-0.891,0.853-1.487
			c-0.016-0.127-0.023-0.229-0.023-0.323c0-1.386,1.124-2.514,2.504-2.514c0.723,0,1.248,0.301,1.563,0.555
			c0.497,0.4,1.213,0.525,1.85,0.321c0.637-0.204,1.087-0.7,1.159-1.281c0.222-1.763,1.954-3.093,4.033-3.093
			c2.24,0,4.062,1.554,4.062,3.465c0,0.81-0.334,1.598-0.941,2.217c-1.231,1.259-1.182,3.114,0.117,4.32
			c0.006,0.005,0.009,0.009,0.014,0.013C62.204,23.314,62.49,25.021,61.679,26.42L61.679,26.42z M58.282,26.42"/>
		<path fill="#FFFFFF" d="M43.452,56.176c0.063-0.004,0.125-0.012,0.188-0.024c0.836-0.162,1.383-0.972,1.221-1.809
			c-1.241-6.41-1.859-12.96-1.865-13.025c-0.08-0.849-0.826-1.47-1.679-1.393c-0.849,0.08-1.472,0.831-1.393,1.679
			c0.006,0.067,0.638,6.763,1.909,13.326C41.981,55.704,42.685,56.23,43.452,56.176L43.452,56.176z M43.452,56.176"/>
		<path fill="#FFFFFF" d="M47.015,59.614c0,0.819-0.664,1.483-1.483,1.483c-0.82,0-1.484-0.664-1.484-1.483s0.664-1.483,1.484-1.483
			C46.351,58.131,47.015,58.795,47.015,59.614L47.015,59.614z M47.015,59.614"/>
	</g>
</g>
</svg>
